<?xml version="1.0" encoding="iso-8859-1"?>
<!-- Generator: Adobe Illustrator 19.0.0, SVG Export Plug-In . SVG Version: 6.00 Build 0)  -->
<svg version="1.1" id="Capa_1" xmlns="http://www.w3.org/2000/svg" xmlns:xlink="http://www.w3.org/1999/xlink" x="0px" y="0px"
	 viewBox="0 0 512 512" style="enable-background:new 0 0 512 512;" xml:space="preserve">
<g>
	<g>
		<g>
			<path d="M256,0C114.615,0,0,114.615,0,256s114.615,256,256,256s256-114.615,256-256S397.385,0,256,0z M256,480
				C132.288,480,32,379.712,32,256S132.288,32,256,32s224,100.288,224,224S379.712,480,256,480z"/>
			<circle cx="176" cy="176" r="32"/>
			<circle cx="336" cy="176" r="32"/>
			<path d="M383.04,309.28c-15.641-22.489-46.551-28.041-69.04-12.4c-4.837,3.364-9.036,7.563-12.4,12.4
				c-7.36,8.16-10.24,10.72-16.96,10.72c-6.72,0-9.6-2.56-16.96-10.72c-15.55-22.445-46.35-28.035-68.795-12.485
				c-4.877,3.379-9.106,7.608-12.485,12.485c-7.36,8.16-10.24,10.72-16.96,10.72c-6.72,0-9.6-2.56-16.8-10.72
				c-9.467-13.066-24.508-20.942-40.64-21.28v32c6.72,0,9.6,2.56,16.96,10.72c9.45,13.085,24.502,20.967,40.64,21.28
				c16.131-0.338,31.173-8.214,40.64-21.28c7.36-8.16,10.24-10.72,16.96-10.72c6.72,0,9.6,2.56,16.96,10.72
				c15.641,22.489,46.551,28.041,69.04,12.4c4.837-3.364,9.036-7.563,12.4-12.4c7.36-8.16,10.24-10.72,16.96-10.72
				c6.72,0,9.6,2.56,16.96,10.72c9.433,13.022,24.405,20.892,40.48,21.28v-32C393.28,320,390.4,317.44,383.04,309.28z"/>
		</g>
	</g>
</g>
<g>
</g>
<g>
</g>
<g>
</g>
<g>
</g>
<g>
</g>
<g>
</g>
<g>
</g>
<g>
</g>
<g>
</g>
<g>
</g>
<g>
</g>
<g>
</g>
<g>
</g>
<g>
</g>
<g>
</g>
</svg>
