<?xml version="1.0" encoding="iso-8859-1"?>
<!-- Generator: Adobe Illustrator 19.0.0, SVG Export Plug-In . SVG Version: 6.00 Build 0)  -->
<svg version="1.1" id="Capa_1" xmlns="http://www.w3.org/2000/svg" xmlns:xlink="http://www.w3.org/1999/xlink" x="0px" y="0px"
	 viewBox="0 0 512 512" style="enable-background:new 0 0 512 512;" xml:space="preserve">
<g>
	<g>
		<path d="M256,0c-33.888,0-65.984,6.56-96,19.04V16c0-8.832-7.168-16-16-16c-8.832,0-16,7.168-16,16v64c0,8.832,7.168,16,16,16h64
			c8.832,0,16-7.168,16-16c0-8.832-7.168-16-16-16h-48v-9.696C189.536,39.744,221.696,32,256,32c123.52,0,224,100.48,224,224
			S379.52,480,256,480S32,379.52,32,256c0-34.304,7.744-66.464,22.304-96H64v48c0,8.832,7.168,16,16,16c8.832,0,16-7.168,16-16v-64
			c0-8.832-7.168-16-16-16H16c-8.832,0-16,7.168-16,16c0,8.832,7.168,16,16,16h3.04C6.56,190.016,0,222.112,0,256
			c0,141.152,114.848,256,256,256s256-114.848,256-256S397.152,0,256,0z"/>
	</g>
</g>
<g>
	<g>
		<path d="M304,384h-96c-8.832,0-16,7.168-16,16c0,8.832,7.168,16,16,16h96c8.832,0,16-7.168,16-16C320,391.168,312.832,384,304,384
			z"/>
	</g>
</g>
<g>
	<g>
		<path d="M208,128h-64c-8.832,0-16,7.168-16,16v64c0,8.832,7.168,16,16,16c8.832,0,16-7.168,16-16v-48h48c8.832,0,16-7.168,16-16
			C224,135.168,216.832,128,208,128z"/>
	</g>
</g>
<g>
	<g>
		<path d="M80,0c-8.832,0-16,7.168-16,16v48H16C7.168,64,0,71.168,0,80c0,8.832,7.168,16,16,16h64c8.832,0,16-7.168,16-16V16
			C96,7.168,88.832,0,80,0z"/>
	</g>
</g>
<g>
	<g>
		<path d="M192,256h-64c-8.832,0-16,7.168-16,16c0,8.832,7.168,16,16,16h64c8.832,0,16-7.168,16-16C208,263.168,200.832,256,192,256
			z"/>
	</g>
</g>
<g>
	<g>
		<path d="M384,256h-64c-8.832,0-16,7.168-16,16c0,8.832,7.168,16,16,16h64c8.832,0,16-7.168,16-16C400,263.168,392.832,256,384,256
			z"/>
	</g>
</g>
<g>
</g>
<g>
</g>
<g>
</g>
<g>
</g>
<g>
</g>
<g>
</g>
<g>
</g>
<g>
</g>
<g>
</g>
<g>
</g>
<g>
</g>
<g>
</g>
<g>
</g>
<g>
</g>
<g>
</g>
</svg>
