<svg width="398" height="383" viewBox="0 0 398 383" fill="none" xmlns="http://www.w3.org/2000/svg">
<g clip-path="url(#clip0)">
<path d="M252.846 18.1445C246.22 10.958 237.128 6.99999 227.243 6.99999C219.854 6.99999 213.088 9.33594 207.131 13.9424C204.125 16.2676 201.401 19.1122 199 22.4326C196.6 19.1133 193.875 16.2676 190.868 13.9424C184.912 9.33594 178.146 6.99999 170.757 6.99999C160.872 6.99999 151.779 10.958 145.153 18.1445C138.606 25.2471 135 34.9502 135 45.4678C135 56.2929 139.034 66.2021 147.695 76.6534C155.443 86.0019 166.579 95.4922 179.475 106.481C183.878 110.234 188.869 114.488 194.052 119.02C195.421 120.219 197.178 120.879 199 120.879C200.821 120.879 202.579 120.219 203.946 119.022C209.129 114.489 214.123 110.233 218.528 106.478C231.422 95.4913 242.558 86.0019 250.306 76.6524C258.967 66.2021 263 56.2929 263 45.4669C263 34.9502 259.394 25.2471 252.846 18.1445Z" fill="#E7232E"/>
<g clip-path="url(#clip1)">
<path d="M354.966 357.926V379.586C354.966 382.025 352.99 384 350.552 384H189.448C187.01 384 185.034 382.025 185.034 379.586V357.926C185.034 335.206 203.457 316.783 226.177 316.783C238.828 316.783 249.034 306.562 249.034 293.975V290.207L249.117 290.003C230.447 282.273 217.178 264.601 215.55 243.846C209.487 244.43 201.586 238.786 201.586 230.069V182.897C201.586 152.579 226.166 128 256.483 128H284.069C314.348 128 338.954 152.524 338.966 182.803C338.971 197.451 337.63 208.789 347.528 222.957C349.559 225.865 347.55 229.876 344.003 229.931C337.542 230.025 331.059 229.644 324.621 228.778V239.52C324.621 262.295 310.684 281.804 290.883 290.003L290.966 290.207V293.975C290.966 306.593 301.206 316.783 313.823 316.783C336.559 316.783 354.966 335.226 354.966 357.926Z" fill="#FFDFBA"/>
<path d="M354.966 357.926V379.586C354.966 382.024 352.989 384 350.552 384H189.448C187.011 384 185.034 382.024 185.034 379.586V357.926C185.034 335.206 203.457 316.783 226.177 316.783C227.556 316.783 228.913 316.662 230.226 316.43L230.276 316.69C262.588 345.683 307.661 351.557 346.535 332.977C351.826 339.901 354.966 348.546 354.966 357.926Z" fill="#42434D"/>
<path d="M324.621 239.52C324.621 269.697 300.153 294.141 270 294.141C239.77 294.141 215.379 269.618 215.379 239.52V212.311C215.379 210.454 216.543 208.797 218.289 208.166C227.858 204.707 236.049 197.975 241.265 188.958C242.76 186.374 246.381 186.051 248.359 188.288C267.595 210.039 293.822 224.658 324.621 228.778V239.52Z" fill="#FFEBD2"/>
<path d="M347.526 222.955C349.559 225.865 347.553 229.878 344.004 229.928C307.936 230.441 273.306 216.495 248.36 188.289C246.381 186.052 242.76 186.375 241.264 188.959C236.047 197.977 227.855 204.708 218.289 208.166C216.542 208.797 215.379 210.458 215.379 212.314C215.375 242.175 215.328 241.107 215.55 243.846C209.488 244.432 201.586 238.786 201.586 230.069C201.586 228.505 201.586 181.722 201.586 182.897C201.586 152.578 226.164 128 256.483 128H284.069C314.35 128 338.954 152.522 338.965 182.803C338.971 197.453 337.628 208.787 347.526 222.955Z" fill="#FFE773"/>
<path d="M291.589 299.266C277.996 304.956 263.058 305.398 248.411 299.266C249.159 296.162 249.034 294.152 249.034 290.207L249.117 290.003C262.404 295.518 277.57 295.529 290.883 290.003L290.965 290.207C290.965 294.153 290.841 296.163 291.589 299.266Z" fill="#FFD6A6"/>
<path d="M307.915 133.434C313.548 136.153 311.529 144.579 305.275 144.552C305.078 144.551 277.251 144.552 277.448 144.552C247.13 144.552 222.552 169.13 222.552 199.448V202.052C222.552 204.682 220.972 207.2 218.287 208.166C216.543 208.794 215.379 210.455 215.379 212.314C215.378 220.281 215.374 226.047 215.372 230.27C215.37 239.19 201.586 239.83 201.586 230.069V182.897C201.586 152.578 226.164 128 256.483 128H284.069C292.611 128 300.701 129.952 307.915 133.434Z" fill="#FFEC8F"/>
<path d="M272.184 281.202C279.503 283.228 278.036 294.078 270.443 294.138C240.038 294.381 215.379 269.794 215.379 239.52V212.309C215.379 210.455 216.543 208.794 218.287 208.166C219.701 207.654 221.085 207.071 222.434 206.42C226.824 204.301 231.92 207.462 231.924 212.337C231.927 216.258 231.931 221.49 231.931 228.486C231.931 254.581 249.717 274.982 272.184 281.202Z" fill="#FFF3E4"/>
<path d="M236.2 321.636C239.134 323.911 238.101 328.541 234.494 329.419C211.629 334.982 201.586 351.03 201.586 368.96V384H189.448C187.011 384 185.034 382.024 185.034 379.586V357.926C185.034 335.206 203.457 316.783 226.177 316.783C227.556 316.783 228.913 316.662 230.226 316.43L230.276 316.69C231.883 318.134 233.859 319.821 236.2 321.636Z" fill="#4D4E59"/>
<path d="M354.966 357.926V379.586C354.966 382.025 352.99 384 350.552 384H338.414V368.96C338.414 358.025 334.679 347.785 326.574 340.204C335.942 337.799 342.899 334.714 346.535 332.977C351.826 339.901 354.966 348.546 354.966 357.926Z" fill="#2C2C33"/>
</g>
<g clip-path="url(#clip2)">
<path d="M196.966 325.363C196.966 324.327 196.966 186.234 196.966 182.897C196.966 152.579 172.386 128 142.069 128H114.483C84.1655 128 59.5862 152.579 59.5862 182.897V324.938C49.5393 332.441 43.0345 344.424 43.0345 357.926V379.586C43.0345 382.025 45.0097 384 47.4483 384H208.552C210.99 384 212.966 382.025 212.966 379.586V357.926C212.966 344.673 206.698 332.883 196.966 325.363Z" fill="#FFD6A6"/>
<path d="M73.3793 239.52C73.3793 262.29 87.3103 281.804 107.117 290.003L107.034 290.207V293.975C107.034 306.61 96.7746 316.783 84.1765 316.783C74.9572 316.783 66.4496 319.818 59.5862 324.938C59.5862 320.534 59.5862 178.716 59.5862 182.897C59.5862 152.578 84.1644 128 114.483 128H142.069C172.387 128 196.965 152.578 196.965 182.897V325.363C190.014 319.983 181.291 316.783 171.823 316.783C159.178 316.783 148.965 306.564 148.965 293.975V290.207L148.883 290.003C168.69 281.804 182.621 262.29 182.621 239.52C182.621 239.146 182.621 207.527 182.621 208.301C182.621 205.555 180.139 203.475 177.435 203.956C170.467 205.194 163.5 206.43 156.532 207.668C154.758 207.983 153.022 206.89 152.579 205.143C151.951 202.674 150.894 199.747 149.087 196.728C147.555 194.172 143.929 194.637 142.937 197.242C141.656 200.605 140.309 204.029 138.965 207.358C138.453 208.627 137.234 209.471 135.866 209.518C116.743 210.183 97.5117 208.427 78.7387 204.285C75.9845 203.677 73.3798 205.774 73.3798 208.595L73.3793 239.52Z" fill="#42434D"/>
<path d="M182.621 239.52C182.621 269.697 158.153 294.141 128 294.141C97.8483 294.141 73.3793 269.698 73.3793 239.52V208.595C73.3793 205.774 75.984 203.677 78.7382 204.285C97.5007 208.425 116.732 210.183 135.866 209.518C137.234 209.471 138.452 208.627 138.964 207.358C140.254 204.164 141.61 200.727 142.936 197.242C143.944 194.595 147.585 194.237 149.048 196.663C150.561 199.173 151.785 202.024 152.578 205.143C153.022 206.89 154.758 207.983 156.532 207.668C163.5 206.43 170.467 205.193 177.435 203.956C180.139 203.475 182.62 205.555 182.62 208.301C182.621 213.036 182.621 235.89 182.621 239.52V239.52Z" fill="#FFDFBA"/>
<path d="M212.966 357.926V379.586C212.966 382.025 210.99 384 208.552 384H47.4483C45.0097 384 43.0345 382.025 43.0345 379.586V357.926C43.0345 335.203 61.4549 316.783 84.1766 316.783C87.5586 316.783 90.7697 316.05 93.6552 314.737L93.7931 315.034C97.2701 317.727 122.314 337.118 125.297 339.426C126.891 340.657 129.109 340.657 130.703 339.426C133.678 337.123 158.733 317.724 162.207 315.034L162.345 314.737C170.054 318.245 173.074 315.476 183.167 318.367C200.375 323.294 212.966 339.139 212.966 357.926Z" fill="#FFA4B8"/>
<path d="M114.964 274.401C123.982 280.239 116.691 294.05 106.792 289.874C87.1873 281.602 73.3793 262.188 73.3793 239.52V208.596C73.3793 205.777 75.9835 203.674 78.7366 204.287C80.0778 204.583 81.4533 204.874 82.8635 205.158C86.9689 205.985 89.9311 209.582 89.9311 213.769V228.486C89.9311 247.094 99.3153 264.269 114.964 274.401Z" fill="#FFEBD2"/>
<path d="M149.589 299.266C135.996 304.956 121.058 305.398 106.411 299.266C107.159 296.162 107.034 294.152 107.034 290.207L107.117 290.003C120.404 295.518 135.57 295.529 148.883 290.003L148.965 290.207C148.965 294.153 148.841 296.163 149.589 299.266Z" fill="#F7C388"/>
<path d="M162.744 132.026C169.468 134.762 167.24 144.745 159.982 144.568C158.869 144.541 130.481 144.552 131.034 144.552C100.716 144.552 76.1379 169.13 76.1379 199.448C76.1379 205.498 73.3793 205.49 73.3793 208.596C73.3793 241.521 72.6637 246.209 76.1379 256.706V317.567C70.0248 318.781 64.4027 321.347 59.5862 324.938V182.897C59.5862 152.578 84.1644 128 114.483 128H142.069C149.384 128 156.363 129.43 162.744 132.026Z" fill="#4D4E59"/>
<path d="M102.893 322.079C105.511 324.106 104.127 328.357 100.816 328.37C77.4599 328.457 59.5862 347.21 59.5862 369.512V384H47.4483C45.0108 384 43.0345 382.024 43.0345 379.586V357.926C43.0345 335.215 61.4455 316.783 84.1766 316.783C87.5586 316.783 90.7697 316.05 93.6552 314.737L93.7931 315.034L102.893 322.079Z" fill="#FFB1BF"/>
<path d="M153.107 322.079C150.489 324.106 151.873 328.357 155.184 328.37C178.54 328.457 196.414 347.21 196.414 369.512V384H208.552C210.989 384 212.966 382.024 212.966 379.586V357.926C212.966 335.215 194.555 316.783 171.823 316.783C168.441 316.783 165.23 316.05 162.345 314.737L162.207 315.034L153.107 322.079Z" fill="#FF99AF"/>
</g>
</g>
<defs>
<clipPath id="clip0">
<rect width="398" height="383" fill="white"/>
</clipPath>
<clipPath id="clip1">
<rect x="142" y="128" width="256" height="256" fill="white"/>
</clipPath>
<clipPath id="clip2">
<rect y="128" width="256" height="256" fill="white"/>
</clipPath>
</defs>
</svg>
