<svg id="Capa_1" enable-background="new 0 0 512 512" height="512" viewBox="0 0 512 512" width="512" xmlns="http://www.w3.org/2000/svg"><g><path d="m438.756 123.523v359.328c0 16.089-13.049 29.149-29.149 29.149h-321.835c-16.1 0-29.149-13.06-29.149-29.149v-453.702c0-16.1 13.05-29.149 29.149-29.149h227.027c2.358 0 4.653.507 6.762 1.458 1.768.796 3.392 1.913 4.788 3.309l5.108 5.087 102.48 102.067c1.406 1.406 2.523 3.03 3.33 4.798.972 2.109 1.489 4.436 1.489 6.804z" fill="#ffe8d2"/><g><g><path d="m197.821 214.792h-77.314c-11.944 0-20.936-10.876-18.688-22.604l3.037-15.868c.873-4.552 2.639-8.796 5.145-12.524 3.958-5.941 9.767-10.583 16.706-13.103l32.678-11.854 32.427 11.763c6.974 2.534 12.803 7.211 16.768 13.201v.007c2.541 3.819 4.314 8.161 5.152 12.824l2.82 15.777c2.086 11.665-6.877 22.381-18.731 22.381z" fill="#b8b6ff"/><path d="m177.266 145.372-18.283 15.96-18.272-15.96v-24.501h36.555z" fill="#ecbd83"/><path d="m188.019 77.654v20.765c0 16.283-13.326 29.997-29.606 29.683-15.777-.304-28.468-13.188-28.468-29.033v-21.415c0-16.037 13-24.406 29.037-24.406 16.037.001 29.037 8.37 29.037 24.406z" fill="#f7d4ad"/><g fill="#a09eef"><path d="m128.8 186.756v28.036h-8.293c-11.944 0-20.936-10.876-18.688-22.604l3.037-15.868c.873-4.552 2.639-8.796 5.145-12.524 10.729 2.143 18.799 11.609 18.799 22.96z"/><path d="m197.821 214.792h-7.993v-28.036c0-11.33 8.049-20.789 18.751-22.946 2.541 3.819 4.314 8.161 5.152 12.824l2.82 15.777c2.087 11.665-6.876 22.381-18.73 22.381z"/></g></g><path d="m188.019 76.238c-1.087.834-1.896 1.433-1.896 1.433-2.057 1.188-4.29 2.276-6.684 3.237-10.89 4.358-21.535 4.518-26.685.91 0 0-5.377-4.012-7.392-6.574-2.014-2.562-8.42-3.211-13.73 2.427-.556.59-1.121.978-1.686 1.205v-1.205c0-16.048 13.006-29.054 29.054-29.054 8.024 0 15.29 3.253 20.54 8.513 4.947 4.94 8.117 11.649 8.479 19.108z" fill="#6e4848"/></g><path d="m437.267 116.719h-73.032c-23.565 0-42.674-19.108-42.674-42.674v-72.587l9.896 8.396 102.48 102.067c1.407 1.406 2.523 3.03 3.33 4.798z" fill="#f7d4ad"/><g><path d="m335.742 354.827h-205.456c-4.283 0-7.755-3.472-7.755-7.755s3.472-7.755 7.755-7.755h205.456c4.283 0 7.755 3.472 7.755 7.755s-3.472 7.755-7.755 7.755z" fill="#e2a876"/></g><g><path d="m327.998 396.487h-197.712c-4.283 0-7.755-3.472-7.755-7.755s3.472-7.755 7.755-7.755h197.712c4.283 0 7.755 3.472 7.755 7.755 0 4.284-3.472 7.755-7.755 7.755z" fill="#e2a876"/></g><g><path d="m353.945 271.505h-223.659c-4.283 0-7.755-3.472-7.755-7.755s3.472-7.755 7.755-7.755h223.659c4.283 0 7.755 3.472 7.755 7.755 0 4.284-3.471 7.755-7.755 7.755z" fill="#e2a876"/></g><g><path d="m343.917 313.167h-213.631c-4.283 0-7.755-3.472-7.755-7.755s3.472-7.755 7.755-7.755h213.631c4.283 0 7.755 3.472 7.755 7.755s-3.472 7.755-7.755 7.755z" fill="#e2a876"/></g><g><path d="m312.243 470.198c-5.056 0-10.111-1.352-14.456-4.13-5-3.198-8.681-8.046-10.689-13.509-12.449 7.528-27.17 10.495-38.784 12.835-4.199.842-8.288-1.872-9.134-6.071s1.872-8.288 6.071-9.134c17.939-3.615 33.559-7.507 43.035-18.556 2.436-2.838 6.549-3.536 9.785-1.655 3.234 1.88 4.665 5.801 3.402 9.322-1.724 4.805.373 10.951 4.672 13.701 4.301 2.749 10.759 2.073 14.397-1.506l.202-.201c.889-.887 2.375-2.372 4.718-3.251 1.991-.744 3.8-.73 4.773-.736 1.201.005 2.401.018 3.603.032 7.56.084 14.709.169 20.839-2.101 1.511-.559 3.095-1.311 4.773-2.107 4.18-1.982 8.919-4.23 14.594-4.472 4.289-.195 7.896 3.137 8.079 7.417.183 4.279-3.138 7.896-7.417 8.079-2.534.108-5.349 1.444-8.609 2.99-1.908.906-3.882 1.841-6.032 2.639-8.823 3.269-17.766 3.164-26.406 3.066-.841-.01-1.681-.019-2.518-.026-5.088 4.852-11.993 7.373-18.898 7.374z" fill="#7c5757"/></g><circle cx="101.759" cy="347.072" fill="#e2a876" r="7.755"/><path d="m438.756 210.555v163.436l-16.193 46.385-33.595 29.335c-3.712 3.247-12.181 2.202-13.421-1.655l-11.188-34.836 52.848-151.4 6.308-18.054 8.872-25.426c1.033-2.977 3.277-5.613 6.369-7.785z" fill="#f7d4ad"/><g fill="#e2a876"><circle cx="101.759" cy="263.75" r="7.755"/><circle cx="101.759" cy="305.411" r="7.755"/><circle cx="101.759" cy="388.732" r="7.755"/></g><g><path d="m405.203 414.673-40.841-8.462 47.736-230.405c2.337-11.278 13.373-18.526 24.651-16.19 11.278 2.337 18.526 13.373 16.19 24.651z" fill="#ff8b59"/><g fill="#7c5757"><path d="m372.211 447.407-7.849-41.196 40.841 8.462-23.571 34.686c-2.607 3.837-8.552 2.605-9.421-1.952z"/><path d="m404.291 199.469h41.708v32.319h-41.708z" transform="matrix(.979 .203 -.203 .979 52.586 -81.767)"/></g></g></g></svg>