<svg width="427" height="517" viewBox="0 0 427 517" fill="none" xmlns="http://www.w3.org/2000/svg">
<path d="M398.837 38.626C381.204 21.004 357.773 11.299 332.858 11.299C321.534 11.299 310.541 13.278 300.119 17.187C289.697 13.278 278.704 11.299 267.379 11.299C242.461 11.299 219.031 21.005 201.407 38.628L52.17 187.858C46.189 193.838 42.894 201.791 42.894 210.25C42.894 218.708 46.188 226.661 52.168 232.642C64.516 244.988 84.606 244.988 96.949 232.643L145.754 183.845C148.68 180.92 153.439 180.921 156.362 183.845C159.287 186.77 159.287 191.529 156.362 194.454L9.747 341.069C-3.249 354.066 -3.249 375.214 9.747 388.211C16.044 394.507 24.415 397.974 33.319 397.974C42.223 397.974 50.594 394.506 56.89 388.209L175.098 269.994C177.015 268.077 179.565 267.02 182.276 267.02C184.988 267.02 187.537 268.076 189.454 269.994C191.372 271.911 192.428 274.46 192.428 277.172C192.428 279.884 191.372 282.432 189.454 284.35L123.457 350.347C117.073 356.731 113.558 365.22 113.558 374.248C113.558 383.277 117.074 391.766 123.457 398.15C129.171 403.863 135.478 406.296 142.155 406.296C160.097 406.296 180.696 388.715 199.477 369.934L335.406 234.005L398.84 170.581C416.438 152.983 426.129 129.553 426.129 104.605C426.129 79.657 416.438 56.226 398.837 38.626ZM384.698 156.438L321.264 219.862L185.334 355.792C169.147 371.979 156.399 381.851 147.442 385.135C141.067 387.473 139.143 385.552 137.598 384.009C134.992 381.402 133.556 377.936 133.556 374.249C133.556 370.562 134.992 367.097 137.598 364.49L203.595 298.493C209.289 292.798 212.426 285.226 212.426 277.173C212.426 269.12 209.289 261.548 203.595 255.853C197.901 250.158 190.328 247.021 182.275 247.021C174.22 247.021 166.649 250.158 160.955 255.853L42.748 374.068C40.229 376.587 36.881 377.974 33.319 377.974C29.756 377.974 26.408 376.587 23.889 374.068C18.69 368.869 18.69 360.409 23.889 355.211L170.504 208.596C175.698 203.401 178.559 196.495 178.559 189.149C178.559 181.803 175.699 174.897 170.503 169.702C159.781 158.98 142.334 158.98 131.612 169.701L82.809 218.5C78.26 223.048 70.86 223.047 66.311 218.5C64.108 216.296 62.894 213.367 62.894 210.25C62.894 207.133 64.108 204.204 66.312 202L215.55 52.771C229.397 38.925 247.803 31.299 267.379 31.299C277.418 31.299 287.109 33.268 296.185 37.153C298.697 38.228 301.542 38.228 304.054 37.153C313.129 33.269 322.82 31.299 332.859 31.299C352.433 31.299 370.843 38.925 384.698 52.771C398.518 66.591 406.13 84.999 406.13 104.604C406.13 124.209 398.518 142.618 384.698 156.438Z" fill="#3E1791"/>
<path d="M372.674 64.79C352.945 45.063 322.102 43.064 300.12 58.791C278.14 43.064 247.294 45.062 227.567 64.79C216.933 75.424 211.076 89.563 211.076 104.603C211.076 119.643 216.933 133.781 227.567 144.415L293.048 209.897C294.924 211.772 297.467 212.826 300.119 212.826C302.771 212.826 305.314 211.772 307.19 209.897L372.672 144.415C394.626 122.462 394.626 86.743 372.674 64.79ZM358.531 130.272L300.12 188.683L241.71 130.272C234.853 123.416 231.076 114.299 231.076 104.603C231.076 94.907 234.852 85.79 241.71 78.933C248.787 71.856 258.083 68.317 267.38 68.317C276.676 68.317 285.972 71.856 293.049 78.933C296.955 82.838 303.285 82.838 307.192 78.933C321.345 64.779 344.377 64.778 358.532 78.933C372.686 93.087 372.686 116.118 358.531 130.272Z" fill="#2C8234"/>
<path d="M371.288 260.122L389.751 241.659C393.656 237.754 393.656 231.422 389.751 227.516C385.845 223.612 379.515 223.612 375.608 227.516L357.145 245.979C353.24 249.884 353.24 256.216 357.145 260.122C359.098 262.074 361.657 263.051 364.216 263.051C366.775 263.051 369.335 262.074 371.288 260.122Z" fill="#2F3BAB"/>
<path d="M342.288 274.979C338.382 271.074 332.052 271.074 328.145 274.979L205.367 397.758C201.462 401.663 201.462 407.995 205.367 411.9C207.32 413.853 209.879 414.829 212.438 414.829C214.997 414.829 217.556 413.852 219.509 411.9L342.287 289.121C346.193 285.216 346.193 278.884 342.288 274.979Z" fill="#2F3BAB"/>
<path d="M93.228 108.062C95.788 108.062 98.346 107.085 100.299 105.133L176.762 28.67C180.667 24.765 180.667 18.433 176.762 14.527C172.856 10.623 166.526 10.623 162.619 14.527L86.156 90.99C82.251 94.895 82.251 101.227 86.156 105.133C88.109 107.085 90.668 108.062 93.228 108.062Z" fill="#2F3BAB"/>
<path d="M59.446 141.843C62.006 141.843 64.564 140.867 66.517 138.914L77.298 128.133C81.203 124.228 81.203 117.896 77.298 113.99C73.392 110.085 67.062 110.085 63.155 113.99L52.374 124.771C48.469 128.676 48.469 135.008 52.374 138.914C54.328 140.867 56.887 141.843 59.446 141.843Z" fill="#2F3BAB"/>
<path d="M377.108 287.514L266.864 397.758C262.959 401.663 262.959 407.995 266.864 411.901C268.817 413.854 271.376 414.83 273.935 414.83C276.494 414.83 279.053 413.853 281.006 411.901L391.25 301.656C395.155 297.751 395.155 291.419 391.25 287.513C387.345 283.608 381.015 283.609 377.108 287.514Z" fill="#2F3BAB"/>
<path d="M47.1133 497.129H44.793L41.0664 491.961C40.1523 492.781 39.1797 493.555 38.1484 494.281C37.1406 494.984 36.0742 495.606 34.9492 496.145C33.8242 496.66 32.6641 497.07 31.4688 497.375C30.2969 497.68 29.1016 497.832 27.8828 497.832C25.2344 497.832 22.7383 497.387 20.3945 496.496C18.0742 495.606 16.0352 494.316 14.2773 492.629C12.543 490.918 11.1719 488.832 10.1641 486.371C9.15625 483.91 8.65234 481.109 8.65234 477.969C8.65234 475.039 9.15625 472.356 10.1641 469.918C11.1719 467.457 12.543 465.348 14.2773 463.59C16.0352 461.832 18.0742 460.473 20.3945 459.512C22.7383 458.527 25.2344 458.035 27.8828 458.035C29.1016 458.035 30.3086 458.188 31.5039 458.492C32.6992 458.797 33.8594 459.219 34.9844 459.758C36.1094 460.297 37.1758 460.93 38.1836 461.656C39.2148 462.383 40.1758 463.168 41.0664 464.012L44.793 459.547H47.1133V497.129ZM37.4453 477.969C37.4453 476.656 37.1875 475.391 36.6719 474.172C36.1797 472.93 35.5 471.84 34.6328 470.902C33.7656 469.941 32.7461 469.18 31.5742 468.617C30.4258 468.031 29.1953 467.738 27.8828 467.738C26.5703 467.738 25.3281 467.961 24.1562 468.406C23.0078 468.852 22 469.508 21.1328 470.375C20.2891 471.242 19.6211 472.32 19.1289 473.609C18.6367 474.875 18.3906 476.328 18.3906 477.969C18.3906 479.609 18.6367 481.074 19.1289 482.363C19.6211 483.629 20.2891 484.695 21.1328 485.563C22 486.43 23.0078 487.086 24.1562 487.531C25.3281 487.977 26.5703 488.199 27.8828 488.199C29.1953 488.199 30.4258 487.918 31.5742 487.356C32.7461 486.77 33.7656 486.008 34.6328 485.07C35.5 484.109 36.1797 483.02 36.6719 481.801C37.1875 480.559 37.4453 479.281 37.4453 477.969ZM75.1328 497.129H53.1953V487.566H75.1328C75.7891 487.566 76.3516 487.332 76.8203 486.863C77.2891 486.395 77.5234 485.832 77.5234 485.176C77.5234 484.496 77.2891 484.051 76.8203 483.84C76.3516 483.629 75.7891 483.524 75.1328 483.524H65.1484C63.4844 483.524 61.9258 483.207 60.4727 482.574C59.0195 481.941 57.7539 481.086 56.6758 480.008C55.5977 478.906 54.7422 477.629 54.1094 476.176C53.5 474.723 53.1953 473.164 53.1953 471.5C53.1953 469.836 53.5 468.277 54.1094 466.824C54.7422 465.371 55.5977 464.106 56.6758 463.027C57.7539 461.949 59.0195 461.106 60.4727 460.496C61.9258 459.863 63.4844 459.547 65.1484 459.547H84.5898V469.109H65.1484C64.4922 469.109 63.9297 469.344 63.4609 469.813C62.9922 470.281 62.7578 470.844 62.7578 471.5C62.7578 472.18 62.9922 472.766 63.4609 473.258C63.9297 473.727 64.4922 473.961 65.1484 473.961H75.1328C76.7734 473.961 78.3203 474.242 79.7734 474.805C81.2266 475.344 82.4922 476.106 83.5703 477.09C84.6484 478.074 85.5039 479.258 86.1367 480.641C86.7695 482.024 87.0859 483.535 87.0859 485.176C87.0859 486.84 86.7695 488.399 86.1367 489.852C85.5039 491.281 84.6484 492.547 83.5703 493.649C82.4922 494.727 81.2266 495.582 79.7734 496.215C78.3203 496.824 76.7734 497.129 75.1328 497.129ZM111.098 497.129C108.777 497.129 106.598 496.695 104.559 495.828C102.52 494.938 100.727 493.731 99.1797 492.207C97.6562 490.66 96.4492 488.867 95.5586 486.828C94.6914 484.789 94.2578 482.609 94.2578 480.289V469.109H89.582V459.547H94.2578V444.5H103.82V459.547H118.375V469.109H103.82V480.289C103.82 481.297 104.008 482.246 104.383 483.137C104.758 484.004 105.273 484.766 105.93 485.422C106.586 486.078 107.359 486.606 108.25 487.004C109.141 487.379 110.09 487.566 111.098 487.566H118.375V497.129H111.098ZM133.387 497.129H123.789V459.477H126.109L129.273 463.941C130.82 462.535 132.578 461.457 134.547 460.707C136.516 459.934 138.555 459.547 140.664 459.547H149.137V469.109H140.664C139.656 469.109 138.707 469.297 137.816 469.672C136.926 470.047 136.152 470.563 135.496 471.219C134.84 471.875 134.324 472.649 133.949 473.539C133.574 474.43 133.387 475.379 133.387 476.387V497.129ZM189.285 477.969C189.285 480.781 188.781 483.406 187.773 485.844C186.766 488.258 185.395 490.356 183.66 492.137C181.926 493.895 179.887 495.289 177.543 496.32C175.223 497.328 172.727 497.832 170.055 497.832C167.406 497.832 164.91 497.328 162.566 496.32C160.246 495.289 158.207 493.895 156.449 492.137C154.715 490.356 153.344 488.258 152.336 485.844C151.328 483.406 150.824 480.781 150.824 477.969C150.824 475.109 151.328 472.461 152.336 470.024C153.344 467.586 154.715 465.488 156.449 463.731C158.207 461.949 160.246 460.555 162.566 459.547C164.91 458.539 167.406 458.035 170.055 458.035C172.727 458.035 175.223 458.516 177.543 459.477C179.887 460.414 181.926 461.762 183.66 463.52C185.395 465.254 186.766 467.352 187.773 469.813C188.781 472.25 189.285 474.969 189.285 477.969ZM179.617 477.969C179.617 476.422 179.359 475.027 178.844 473.785C178.352 472.52 177.672 471.441 176.805 470.551C175.938 469.637 174.918 468.945 173.746 468.477C172.598 467.984 171.367 467.738 170.055 467.738C168.742 467.738 167.5 467.984 166.328 468.477C165.18 468.945 164.172 469.637 163.305 470.551C162.461 471.441 161.793 472.52 161.301 473.785C160.809 475.027 160.562 476.422 160.562 477.969C160.562 479.422 160.809 480.77 161.301 482.012C161.793 483.254 162.461 484.332 163.305 485.246C164.172 486.16 165.18 486.887 166.328 487.426C167.5 487.941 168.742 488.199 170.055 488.199C171.367 488.199 172.598 487.953 173.746 487.461C174.918 486.969 175.938 486.277 176.805 485.387C177.672 484.496 178.352 483.418 178.844 482.152C179.359 480.887 179.617 479.492 179.617 477.969Z" fill="#2C8234"/>
<path d="M242.477 497.129H232.914V473.223C232.914 472.566 232.785 471.945 232.527 471.359C232.293 470.774 231.953 470.258 231.508 469.813C231.062 469.367 230.547 469.027 229.961 468.793C229.375 468.535 228.754 468.406 228.098 468.406C227.441 468.406 226.82 468.535 226.234 468.793C225.672 469.027 225.168 469.367 224.723 469.813C224.301 470.258 223.961 470.774 223.703 471.359C223.469 471.945 223.352 472.566 223.352 473.223V497.129H213.754V473.223C213.754 472.566 213.625 471.945 213.367 471.359C213.133 470.774 212.793 470.258 212.348 469.813C211.902 469.367 211.387 469.027 210.801 468.793C210.215 468.535 209.594 468.406 208.938 468.406C208.281 468.406 207.66 468.535 207.074 468.793C206.512 469.027 206.008 469.367 205.562 469.813C205.141 470.258 204.801 470.774 204.543 471.359C204.309 471.945 204.191 472.566 204.191 473.223V497.129H194.594V459.477H196.914L199.516 462.359C200.852 461.234 202.316 460.367 203.91 459.758C205.527 459.125 207.203 458.809 208.938 458.809C210.695 458.809 212.406 459.137 214.07 459.793C215.758 460.449 217.234 461.586 218.5 463.203C219.086 462.406 219.754 461.727 220.504 461.164C221.254 460.602 222.039 460.145 222.859 459.793C223.703 459.441 224.57 459.195 225.461 459.055C226.352 458.891 227.23 458.809 228.098 458.809C230.09 458.809 231.953 459.184 233.688 459.934C235.445 460.684 236.969 461.715 238.258 463.027C239.57 464.316 240.602 465.84 241.352 467.598C242.102 469.356 242.477 471.231 242.477 473.223V497.129ZM285.965 497.129H283.645L279.918 491.961C279.004 492.781 278.031 493.555 277 494.281C275.992 494.984 274.926 495.606 273.801 496.145C272.676 496.66 271.516 497.07 270.32 497.375C269.148 497.68 267.953 497.832 266.734 497.832C264.086 497.832 261.59 497.387 259.246 496.496C256.926 495.606 254.887 494.316 253.129 492.629C251.395 490.918 250.023 488.832 249.016 486.371C248.008 483.91 247.504 481.109 247.504 477.969C247.504 475.039 248.008 472.356 249.016 469.918C250.023 467.457 251.395 465.348 253.129 463.59C254.887 461.832 256.926 460.473 259.246 459.512C261.59 458.527 264.086 458.035 266.734 458.035C267.953 458.035 269.16 458.188 270.355 458.492C271.551 458.797 272.711 459.219 273.836 459.758C274.961 460.297 276.027 460.93 277.035 461.656C278.066 462.383 279.027 463.168 279.918 464.012L283.645 459.547H285.965V497.129ZM276.297 477.969C276.297 476.656 276.039 475.391 275.523 474.172C275.031 472.93 274.352 471.84 273.484 470.902C272.617 469.941 271.598 469.18 270.426 468.617C269.277 468.031 268.047 467.738 266.734 467.738C265.422 467.738 264.18 467.961 263.008 468.406C261.859 468.852 260.852 469.508 259.984 470.375C259.141 471.242 258.473 472.32 257.98 473.609C257.488 474.875 257.242 476.328 257.242 477.969C257.242 479.609 257.488 481.074 257.98 482.363C258.473 483.629 259.141 484.695 259.984 485.563C260.852 486.43 261.859 487.086 263.008 487.531C264.18 487.977 265.422 488.199 266.734 488.199C268.047 488.199 269.277 487.918 270.426 487.356C271.598 486.77 272.617 486.008 273.484 485.07C274.352 484.109 275.031 483.02 275.523 481.801C276.039 480.559 276.297 479.281 276.297 477.969ZM312.191 497.129C309.871 497.129 307.691 496.695 305.652 495.828C303.613 494.938 301.82 493.731 300.273 492.207C298.75 490.66 297.543 488.867 296.652 486.828C295.785 484.789 295.352 482.609 295.352 480.289V469.109H290.676V459.547H295.352V444.5H304.914V459.547H319.469V469.109H304.914V480.289C304.914 481.297 305.102 482.246 305.477 483.137C305.852 484.004 306.367 484.766 307.023 485.422C307.68 486.078 308.453 486.606 309.344 487.004C310.234 487.379 311.184 487.566 312.191 487.566H319.469V497.129H312.191ZM357.789 466.965L350.758 474.031C350.406 473.047 349.926 472.168 349.316 471.395C348.707 470.598 348.016 469.93 347.242 469.391C346.492 468.852 345.672 468.441 344.781 468.16C343.891 467.879 342.977 467.738 342.039 467.738C340.727 467.738 339.484 468.008 338.312 468.547C337.164 469.086 336.156 469.848 335.289 470.832C334.445 471.793 333.777 472.941 333.285 474.277C332.793 475.613 332.547 477.09 332.547 478.707C332.547 480.02 332.793 481.25 333.285 482.399C333.777 483.547 334.445 484.555 335.289 485.422C336.156 486.289 337.164 486.969 338.312 487.461C339.484 487.953 340.727 488.199 342.039 488.199C342.977 488.199 343.879 488.07 344.746 487.813C345.613 487.555 346.422 487.191 347.172 486.723C347.945 486.231 348.625 485.645 349.211 484.965C349.82 484.262 350.312 483.488 350.688 482.645L357.719 489.711C356.828 490.977 355.797 492.113 354.625 493.121C353.477 494.129 352.223 494.984 350.863 495.688C349.527 496.391 348.109 496.918 346.609 497.27C345.133 497.645 343.609 497.832 342.039 497.832C339.391 497.832 336.895 497.34 334.551 496.356C332.23 495.348 330.191 493.977 328.434 492.242C326.699 490.508 325.328 488.481 324.32 486.16C323.312 483.84 322.809 481.356 322.809 478.707C322.809 475.824 323.312 473.129 324.32 470.621C325.328 468.113 326.699 465.934 328.434 464.082C330.191 462.207 332.23 460.731 334.551 459.652C336.895 458.574 339.391 458.035 342.039 458.035C343.609 458.035 345.145 458.234 346.645 458.633C348.168 459.031 349.609 459.617 350.969 460.391C352.352 461.141 353.617 462.066 354.766 463.168C355.938 464.27 356.945 465.535 357.789 466.965ZM372.098 497.129H362.5V444.5H372.098V461.129C373.246 460.262 374.43 459.652 375.648 459.301C376.867 458.926 378.109 458.738 379.375 458.738C381.695 458.738 383.875 459.184 385.914 460.074C387.953 460.941 389.723 462.149 391.223 463.695C392.746 465.219 393.941 467.012 394.809 469.074C395.699 471.113 396.145 473.293 396.145 475.613V497.129H386.477V475.613H386.547C386.547 474.629 386.359 473.703 385.984 472.836C385.609 471.945 385.094 471.172 384.438 470.516C383.781 469.859 383.02 469.344 382.152 468.969C381.285 468.594 380.359 468.406 379.375 468.406C378.367 468.406 377.418 468.594 376.527 468.969C375.637 469.344 374.863 469.859 374.207 470.516C373.551 471.172 373.035 471.945 372.66 472.836C372.285 473.703 372.098 474.629 372.098 475.613V497.129Z" fill="#3E1791"/>
<path d="M414.812 493.543C414.812 494.387 414.66 495.184 414.355 495.934C414.051 496.66 413.629 497.293 413.09 497.832C412.551 498.371 411.918 498.793 411.191 499.098C410.465 499.426 409.68 499.59 408.836 499.59C408.016 499.59 407.23 499.426 406.48 499.098C405.754 498.793 405.109 498.371 404.547 497.832C404.008 497.293 403.574 496.66 403.246 495.934C402.941 495.184 402.789 494.387 402.789 493.543C402.789 492.723 402.941 491.949 403.246 491.223C403.574 490.496 404.008 489.863 404.547 489.324C405.109 488.785 405.754 488.363 406.48 488.059C407.23 487.731 408.016 487.566 408.836 487.566C409.68 487.566 410.465 487.731 411.191 488.059C411.918 488.363 412.551 488.785 413.09 489.324C413.629 489.863 414.051 490.496 414.355 491.223C414.66 491.949 414.812 492.723 414.812 493.543Z" fill="#2F3BAB"/>
</svg>
