<svg width="398" height="383" viewBox="0 0 398 383" fill="none" xmlns="http://www.w3.org/2000/svg">
<g clip-path="url(#clip0)">
<g clip-path="url(#clip1)">
<path d="M204.955 357.929V379.587C204.955 382.025 202.98 384 200.542 384H39.458C37.0197 384 35.0447 382.025 35.0447 379.587V357.929C35.0447 335.206 53.4646 316.797 76.1929 316.792C84.225 316.786 91.2973 312.654 95.3685 306.387C99.4585 300.102 99.037 294.636 99.037 290.218L99.1198 290.014C79.3153 281.816 65.3859 262.304 65.3859 239.537V237.811C57.522 237.811 51.5945 231.596 51.5945 224.273V201.346C51.4179 193.364 51.782 165.213 72.1161 145.612C95.7602 122.823 133.229 124.688 160.37 136.879C161.253 137.277 161.225 138.54 160.332 138.91L153.254 141.822C152.195 142.258 152.421 143.819 153.557 143.941L156.994 144.31C175.486 146.285 190.871 157.324 198.545 170.404C198.617 170.531 198.595 170.696 198.49 170.806C192.377 177.04 188.957 185.431 188.957 194.169V223.473C188.957 231.378 182.552 237.811 174.614 237.811V239.537C174.614 262.304 160.685 281.816 140.88 290.014L140.963 290.218C140.963 294.511 140.507 300.049 144.632 306.387C148.703 312.654 155.775 316.786 163.807 316.792C186.535 316.797 204.955 335.206 204.955 357.929Z" fill="#FFD6A6"/>
<path d="M198.543 170.403C198.616 170.529 198.594 170.696 198.487 170.806C192.379 177.042 188.957 185.433 188.957 194.169V223.473C188.957 231.378 182.554 237.811 174.614 237.811C174.614 221.117 174.623 212.393 174.62 207.704C174.618 204.744 171.758 202.616 168.928 203.486C160.034 206.223 149.66 207.633 138.757 205.263C119.57 201.093 114.136 193.574 98.4859 189.817C80.9984 185.624 65.1382 199.018 65.2485 216.153C65.2816 221.785 65.3754 228.825 65.3865 237.811C57.5226 237.811 51.595 231.597 51.595 224.273V201.346C51.4185 193.364 51.7826 165.213 72.1167 145.612C95.7585 122.823 133.231 124.689 160.368 136.881C161.251 137.278 161.228 138.542 160.332 138.91L153.254 141.824C152.196 142.26 152.419 143.82 153.556 143.942L156.994 144.311C175.487 146.288 190.872 157.323 198.543 170.403Z" fill="#42434D"/>
<path d="M168.928 203.486C171.757 202.616 174.617 204.741 174.62 207.701C174.623 212.553 174.614 221.719 174.614 239.537C174.614 262.304 160.684 281.817 140.88 290.014C105.068 304.88 65.3853 278.471 65.3853 239.537C65.3853 229.469 65.2838 222.316 65.2474 216.153C65.1371 199.018 80.9973 185.624 98.4848 189.817C114.135 193.573 119.569 201.092 138.756 205.263C149.659 207.632 160.034 206.222 168.928 203.486Z" fill="#FFDFBA"/>
<path d="M204.955 357.929V379.587C204.955 382.024 202.979 384 200.542 384H39.458C37.0208 384 35.0447 382.024 35.0447 379.587V357.929C35.0447 335.206 53.4673 316.8 76.1901 316.792C84.2245 316.789 91.2984 312.652 95.3685 306.387C109.576 318.525 130.416 318.532 144.632 306.387C148.701 312.652 155.776 316.789 163.81 316.792C186.533 316.8 204.955 335.206 204.955 357.929Z" fill="#42434D"/>
<path d="M164.684 374.622H151.444C149.007 374.622 147.031 372.646 147.031 370.209C147.031 367.771 149.007 365.795 151.444 365.795H164.684C167.121 365.795 169.098 367.771 169.098 370.209C169.098 372.646 167.122 374.622 164.684 374.622Z" fill="white"/>
<path d="M98.4203 330.118C96.3802 330.76 94.1924 331.113 91.8467 331.134C69.0655 331.334 50.4911 349.348 50.4911 372.13V376.277C50.4911 380.542 47.0334 384 42.7679 384H39.458C37.0208 384 35.0447 382.024 35.0447 379.587V357.929C35.0447 335.206 53.4673 316.8 76.1901 316.792C84.2245 316.789 91.2984 312.652 95.3685 306.387C97.0091 307.789 98.7656 309.048 100.616 310.151C108.754 315 107.458 327.276 98.4203 330.118Z" fill="#4D4E59"/>
<path d="M141.58 330.118C143.62 330.76 145.808 331.113 148.153 331.134C170.935 331.334 189.509 349.348 189.509 372.13V376.277C189.509 380.542 192.967 384 197.232 384H200.542C202.979 384 204.955 382.024 204.955 379.587V357.929C204.955 335.206 186.533 316.8 163.81 316.792C155.776 316.789 148.702 312.652 144.632 306.387C142.991 307.789 141.234 309.048 139.384 310.151C131.246 315 132.542 327.276 141.58 330.118Z" fill="#2C2C33"/>
<path d="M141.586 299.276C127.995 304.966 113.059 305.407 98.4136 299.276C99.1617 296.173 99.037 294.163 99.037 290.218L99.1198 290.014C112.405 295.528 127.569 295.539 140.88 290.014L140.963 290.218C140.963 294.164 140.838 296.174 141.586 299.276Z" fill="#F7C388"/>
<path d="M160.332 138.91C155.131 141.048 153.979 141.802 151.591 141.409C107.818 134.203 73.3507 157.09 68.6352 201.814C68.5524 202.6 68.3511 203.37 68.003 204.078C64.6461 210.912 65.243 215.97 65.3142 224.378C65.3887 233.224 52.0584 233.791 51.6116 224.956C51.5834 224.404 51.5945 225.858 51.5945 201.346C51.4179 193.364 51.782 165.213 72.1161 145.612C95.7602 122.823 133.229 124.688 160.37 136.879C161.253 137.277 161.225 138.54 160.332 138.91Z" fill="#4D4E59"/>
<path d="M107.641 274.81C116.617 280.423 109.533 294.197 99.7084 290.255C79.5304 282.157 65.3865 262.484 65.3865 239.538C65.3865 229.458 65.285 222.341 65.2485 216.153C65.2138 210.614 66.8461 205.467 69.6629 201.178C73.2034 195.788 81.7514 198.137 81.7983 205.12C81.8347 211.328 81.9362 218.414 81.9362 228.505C81.9356 248.639 92.5208 265.354 107.641 274.81Z" fill="#FFEBD2"/>
</g>
<path d="M252.846 18.1445C246.22 10.958 237.128 6.99999 227.243 6.99999C219.854 6.99999 213.088 9.33594 207.131 13.9424C204.125 16.2676 201.401 19.1122 199 22.4326C196.6 19.1133 193.875 16.2676 190.868 13.9424C184.912 9.33594 178.146 6.99999 170.757 6.99999C160.872 6.99999 151.779 10.958 145.153 18.1445C138.606 25.2471 135 34.9502 135 45.4678C135 56.2929 139.034 66.2021 147.695 76.6534C155.443 86.0019 166.579 95.4922 179.475 106.481C183.878 110.234 188.869 114.488 194.052 119.02C195.421 120.219 197.178 120.879 199 120.879C200.821 120.879 202.579 120.219 203.946 119.022C209.129 114.489 214.123 110.233 218.528 106.478C231.422 95.4913 242.558 86.0019 250.306 76.6524C258.967 66.2021 263 56.2929 263 45.4669C263 34.9502 259.394 25.2471 252.846 18.1445Z" fill="#E7232E"/>
<g clip-path="url(#clip2)">
<path d="M354.966 357.804V379.586C354.966 382.025 352.99 384 350.552 384H189.448C187.01 384 185.034 382.025 185.034 379.586V357.804C185.034 335.051 203.65 317.004 226.403 316.783C239.033 316.649 249.034 306.412 249.034 293.975V290.207L249.117 290.003C229.31 281.804 215.379 262.29 215.379 239.52V237.793C207.514 237.793 201.586 231.578 201.586 224.254V170.483C201.586 162.257 208.257 155.586 216.483 155.586C223.144 138.934 239.281 128 257.228 128H294.828C319.203 128 338.966 147.763 338.966 172.138V223.454C338.966 231.353 332.563 237.793 324.621 237.793V239.52C324.621 262.29 310.69 281.804 290.883 290.003L290.966 290.207V293.975C290.966 306.456 301.01 316.649 313.597 316.783C336.35 317.004 354.966 335.051 354.966 357.804Z" fill="#FFD6A6"/>
<path d="M354.966 357.804V379.586C354.966 382.025 352.99 384 350.552 384H189.448C187.01 384 185.034 382.025 185.034 379.586V357.804C185.034 335.051 203.65 317.004 226.403 316.783C233.923 316.703 240.742 313.004 244.924 307.034C264.103 328.348 259.691 323.444 266.717 331.255C268.472 333.203 271.528 333.203 273.283 331.255C279.583 324.25 274.44 329.966 295.076 307.034C299.244 312.984 306.052 316.703 313.597 316.783C336.35 317.004 354.966 335.051 354.966 357.804V357.804Z" fill="#D6F4FC"/>
<path d="M318.915 203.354C321.749 202.47 324.623 204.598 324.626 207.566C324.63 212.306 324.621 219.836 324.621 239.52C324.621 269.697 300.153 294.141 270 294.141C239.848 294.141 215.379 269.698 215.379 239.52C215.379 229.45 215.278 222.296 215.241 216.132C215.131 198.996 230.993 185.6 248.483 189.793C264.152 193.55 269.586 201.109 288.759 205.241C299.631 207.587 310.022 206.13 318.915 203.354Z" fill="#FFDFBA"/>
<path d="M338.966 172.138V223.454C338.966 231.359 332.562 237.793 324.621 237.793C324.621 220.955 324.63 212.226 324.626 207.566C324.623 204.598 321.748 202.47 318.915 203.354C310.022 206.13 299.632 207.587 288.759 205.241C269.586 201.109 264.152 193.55 248.483 189.793C230.993 185.6 215.131 198.996 215.241 216.132C215.274 221.766 215.368 228.806 215.379 237.793C207.514 237.793 201.586 231.578 201.586 224.254V170.483C201.586 162.257 208.257 155.586 216.483 155.586C223.144 138.933 239.282 128 257.228 128H294.828C319.204 128 338.966 147.761 338.966 172.138V172.138Z" fill="#42434D"/>
<path d="M304.803 314.941C304.734 315.086 299.289 339.859 299.324 339.701C298.605 342.96 294.481 344.009 292.292 341.49C277.805 324.808 279.782 326.983 278.314 325.66L295.076 307.034C297.503 310.499 300.869 313.252 304.803 314.941V314.941Z" fill="#E8F8FC"/>
<path d="M244.924 307.035L261.288 325.22L247.714 341.305C245.545 343.876 241.369 342.846 240.646 339.56C240.611 339.403 235.266 315.086 235.197 314.941C239.131 313.253 242.497 310.5 244.924 307.035V307.035Z" fill="#E8F8FC"/>
<path d="M238.066 327.862C216.229 328.855 198.828 346.88 198.828 368.96V384H189.448C187.011 384 185.034 382.024 185.034 379.586V357.838C185.034 335.078 203.657 317.017 226.417 316.782C229.529 316.75 232.497 316.097 235.197 314.941C235.266 315.086 238.031 327.705 238.066 327.862V327.862Z" fill="#E8F8FC"/>
<path d="M301.934 327.862C323.771 328.855 341.172 346.88 341.172 368.96V384H350.552C352.989 384 354.966 382.024 354.966 379.586V357.838C354.966 335.078 336.343 317.017 313.583 316.782C310.471 316.75 307.503 316.097 304.803 314.941C304.734 315.086 301.969 327.705 301.934 327.862V327.862Z" fill="#BDEFFC"/>
<path d="M245.272 330.207C246.094 333.942 246.971 337.92 247.716 341.302C245.546 343.874 241.371 342.846 240.648 339.56C238.526 329.926 235.244 315.039 235.198 314.941C239.132 313.252 242.497 310.499 244.925 307.034L249.636 312.276C245.586 317.319 243.87 323.857 245.272 330.207V330.207Z" fill="#F1FAFC"/>
<path d="M278.314 325.661L286.552 384H253.448L261.288 325.219L266.719 331.252C268.473 333.2 271.527 333.2 273.28 331.252L278.314 325.661Z" fill="#FE4F60"/>
<path d="M267.054 331.625L260.069 384H253.448L261.288 325.219L267.054 331.625Z" fill="#E84857"/>
<path d="M291.589 299.266C277.996 304.956 263.058 305.398 248.411 299.266C249.159 296.162 249.034 294.152 249.034 290.207L249.117 290.003C262.404 295.518 277.57 295.529 290.883 290.003L290.966 290.207C290.966 294.153 290.841 296.163 291.589 299.266Z" fill="#F7C388"/>
<path d="M257.64 274.797C266.617 280.41 259.532 294.186 249.706 290.243C229.525 282.144 215.379 262.469 215.379 239.52C215.379 229.438 215.278 222.321 215.241 216.132C215.207 210.593 216.839 205.444 219.656 201.155C223.197 195.764 231.746 198.114 231.793 205.098C231.83 211.307 231.931 218.393 231.931 228.486C231.931 248.622 242.518 265.34 257.64 274.797V274.797Z" fill="#FFEBD2"/>
<path d="M314.524 132.628C320.511 135.619 318.31 144.588 311.618 144.552C311.423 144.551 273.974 144.552 273.779 144.552C256.925 144.552 241.652 154.198 234.34 169.19C233.507 170.9 231.896 172.06 230.033 172.441C223.245 173.83 218.138 179.837 218.138 187.034C218.138 203.678 218.321 203.298 217.59 204.927C214.649 211.485 215.248 215.596 215.337 228.116C215.382 234.275 207.366 236.898 203.907 231.801C202.431 229.627 201.586 227.02 201.586 224.254V170.483C201.586 162.257 208.257 155.586 216.483 155.586C223.144 138.934 239.281 128 257.228 128H294.828C301.905 128 308.594 129.666 314.524 132.628V132.628Z" fill="#4D4E59"/>
</g>
</g>
<defs>
<clipPath id="clip0">
<rect width="398" height="383" fill="white"/>
</clipPath>
<clipPath id="clip1">
<rect x="-8" y="128" width="256" height="256" fill="white"/>
</clipPath>
<clipPath id="clip2">
<rect x="142" y="128" width="256" height="256" fill="white"/>
</clipPath>
</defs>
</svg>
