<svg width="398" height="383" viewBox="0 0 398 383" fill="none" xmlns="http://www.w3.org/2000/svg">
<g clip-path="url(#clip0)">
<path d="M204.977 357.805V379.451C204.977 381.888 203.004 383.862 200.567 383.862H39.5713C37.1343 383.862 35.1605 381.888 35.1605 379.451V357.805C35.1605 340.31 46.1104 325.33 61.5428 319.408C63.6103 314.077 62.673 316.486 65.7606 308.525C67.8502 303.132 74.483 301.175 79.164 304.571C85.1683 308.927 87.1256 310.35 89.7886 312.279C95.4455 308.133 99.1175 301.451 99.1175 293.897V290.132L99.2002 289.928C80.6582 282.253 67.2713 264.653 65.6503 243.763L65.4849 243.779C55.4056 243.779 46.5311 237.084 43.927 227.426C30.4007 177.139 68.5648 128.395 119.501 128.034C172.111 128.034 209.639 177.507 196.211 227.426C193.615 237.056 184.761 243.779 174.653 243.779L174.488 243.763C172.867 264.653 159.48 282.253 140.938 289.928L141.02 290.132V293.897C141.02 301.451 144.692 308.133 150.349 312.279C153.007 310.35 154.959 308.933 160.974 304.571C165.655 301.175 172.288 303.132 174.377 308.53C177.487 316.547 176.583 314.209 178.595 319.408C194.022 325.33 204.977 340.299 204.977 357.805Z" fill="#C79A83"/>
<path d="M174.653 203.696V239.479C174.653 278.414 134.98 304.78 99.2002 289.928C79.2925 281.688 65.4849 262.112 65.4849 239.479V203.696C65.4849 189.079 77.3335 177.231 91.9499 177.231H148.188C162.804 177.231 174.653 189.079 174.653 203.696Z" fill="#E0B7A3"/>
<path d="M65.6503 243.763L65.4849 243.779C55.4123 243.779 46.5327 237.09 43.927 227.426C30.4001 177.136 68.5676 128.395 119.501 128.034C172.111 128.034 209.639 177.507 196.211 227.426C193.614 237.057 184.76 243.779 174.653 243.779L174.488 243.763C174.708 240.929 174.653 243.098 174.653 203.696C174.653 189.079 162.804 177.231 148.188 177.231H91.9499C77.3335 177.231 65.4849 189.079 65.4849 203.696C65.4849 242.873 65.4248 240.863 65.6503 243.763Z" fill="#42434D"/>
<path d="M204.84 357.943V379.589C204.84 382.025 202.865 384 200.429 384H39.4335C36.9976 384 35.0226 382.025 35.0226 379.589V357.943C35.0226 340.446 45.9703 325.471 61.4049 319.547C63.4703 314.216 62.5368 316.625 65.6228 308.663C67.7124 303.271 74.3452 301.314 79.0262 304.71C92.5277 314.505 85.5751 309.462 112.163 328.743C116.794 332.107 123.068 332.107 127.7 328.743C154.318 309.439 147.33 314.508 160.836 304.71C165.517 301.314 172.15 303.271 174.239 308.669C177.348 316.684 176.443 314.348 178.457 319.547C193.882 325.467 204.84 340.436 204.84 357.943Z" fill="#42434D"/>
<path d="M140.68 130.831C148.693 133.006 146.897 144.869 138.598 144.614C93.9464 143.242 56.4968 180.621 57.7511 225.519C57.9799 233.708 46.1655 235.72 43.927 227.427C28.2283 169.059 81.8712 114.866 140.68 130.831Z" fill="#4D4E59"/>
<path d="M97.6117 266.638C106.25 275.415 94.0175 288.893 84.6042 280.953C73.1647 271.306 65.4855 256.89 65.4855 239.479V203.696C65.4855 198.309 67.1495 193.035 70.1571 188.641C73.7966 183.323 82.0658 186.061 82.0266 192.504C82.0261 192.638 82.0261 228.317 82.0261 228.452C82.0255 243.623 88.0755 256.949 97.6117 266.638Z" fill="#F2D1C2"/>
<path d="M83.6008 381.286C81.9533 379.492 82.0719 376.702 83.866 375.054C91.0997 368.412 96.3547 360.086 99.2708 350.949C100.011 348.628 102.493 347.348 104.814 348.089C107.135 348.83 108.416 351.311 107.675 353.632C104.302 364.198 98.2215 373.849 89.8327 381.553C88.0386 383.199 85.2488 383.08 83.6008 381.286Z" fill="#2C2C33"/>
<path d="M150.029 381.551C141.63 373.839 135.556 364.187 132.187 353.631C131.446 351.31 132.727 348.829 135.048 348.088C137.369 347.347 139.85 348.627 140.591 350.948C143.503 360.073 148.751 368.401 155.996 375.053C157.79 376.701 157.909 379.491 156.261 381.285C154.612 383.081 151.822 383.198 150.029 381.551Z" fill="#2C2C33"/>
<path d="M85.9567 309.555C82.5052 311.55 82.2935 313.654 77.9455 324.877C62.5197 330.797 51.5632 345.766 51.5632 363.273V383.816H39.4335C36.9976 383.816 35.0226 381.841 35.0226 379.406V357.759C35.0226 340.263 45.9703 325.287 61.4049 319.363C63.8061 313.165 65.6305 308.459 65.6233 308.477C67.714 303.083 74.3435 301.129 79.0262 304.526L85.9567 309.555Z" fill="#4D4E59"/>
<path d="M153.905 309.738C157.357 311.734 157.569 313.838 161.917 325.06C177.342 330.981 188.299 345.949 188.299 363.457V384H200.429C202.865 384 204.839 382.025 204.839 379.589V357.943C204.839 340.446 193.892 325.471 178.457 319.547C176.056 313.348 174.232 308.643 174.239 308.661C172.148 303.267 165.519 301.312 160.836 304.71L153.905 309.738Z" fill="#2C2C33"/>
<path d="M184.66 322.336C161.13 328.331 162.802 327.965 162.016 327.965C160.048 327.965 158.256 326.637 157.748 324.646C157.147 322.281 158.57 319.883 160.93 319.282L176.963 315.196L178.595 319.408C180.707 320.219 182.736 321.2 184.66 322.336Z" fill="#2C2C33"/>
<path d="M82.2516 324.601C81.7443 326.591 79.9524 327.92 77.9841 327.92C77.1973 327.92 78.8591 328.284 55.34 322.291C57.2643 321.155 59.2932 320.174 61.4049 319.363L63.0369 315.151L79.0703 319.236C81.4301 319.837 82.8526 322.236 82.2516 324.601Z" fill="#42434D"/>
<path d="M126.134 227.277H114.004C111.568 227.277 109.593 225.302 109.593 222.866C109.593 220.431 111.568 218.456 114.004 218.456H126.134C128.57 218.456 130.545 220.431 130.545 222.866C130.545 225.302 128.57 227.277 126.134 227.277Z" fill="#4D4E59"/>
<path d="M139.366 240.51C149.11 240.51 157.01 232.611 157.01 222.866C157.01 213.122 149.11 205.223 139.366 205.223C129.622 205.223 121.723 213.122 121.723 222.866C121.723 232.611 129.622 240.51 139.366 240.51Z" fill="#D6F4FC"/>
<path d="M100.772 240.51C110.516 240.51 118.415 232.611 118.415 222.866C118.415 213.122 110.516 205.223 100.772 205.223C91.0274 205.223 83.1282 213.122 83.1282 222.866C83.1282 232.611 91.0274 240.51 100.772 240.51Z" fill="#D6F4FC"/>
<path d="M105.221 211.95C97.0764 215.212 92.4615 224.453 94.7056 232.925C95.5293 236.035 91.9069 238.453 89.4423 236.384C85.584 233.146 83.1282 228.288 83.1282 222.866C83.1282 210.732 94.4878 203.344 104.727 205.638C107.918 206.353 108.257 210.734 105.221 211.95Z" fill="#E8F8FC"/>
<path d="M143.816 211.95C135.671 215.212 131.056 224.453 133.3 232.925C134.124 236.035 130.502 238.453 128.037 236.384C124.179 233.146 121.723 228.288 121.723 222.866C121.723 210.732 133.083 203.344 143.322 205.638C146.513 206.353 146.851 210.734 143.816 211.95Z" fill="#E8F8FC"/>
<path d="M141.643 299.185C128.06 304.871 113.132 305.312 98.4945 299.185C99.2421 296.083 99.1175 294.074 99.1175 290.132L99.2002 289.928C112.478 295.439 127.634 295.45 140.938 289.928L141.02 290.132C141.02 294.075 140.896 296.084 141.643 299.185Z" fill="#A07765"/>
<path d="M252.846 18.1445C246.22 10.958 237.128 6.99999 227.243 6.99999C219.854 6.99999 213.088 9.33594 207.131 13.9424C204.125 16.2676 201.401 19.1122 199 22.4326C196.6 19.1133 193.875 16.2676 190.868 13.9424C184.912 9.33594 178.146 6.99999 170.757 6.99999C160.872 6.99999 151.779 10.958 145.153 18.1445C138.606 25.2471 135 34.9502 135 45.4678C135 56.2929 139.034 66.2021 147.695 76.6534C155.443 86.0019 166.579 95.4922 179.475 106.481C183.878 110.234 188.869 114.488 194.052 119.02C195.421 120.219 197.178 120.879 199 120.879C200.821 120.879 202.579 120.219 203.946 119.022C209.129 114.489 214.123 110.233 218.528 106.478C231.422 95.4913 242.558 86.0019 250.306 76.6524C258.967 66.2021 263 56.2929 263 45.4669C263 34.9502 259.394 25.2471 252.846 18.1445Z" fill="#E7232E"/>
<g clip-path="url(#clip1)">
<path d="M368.69 274.401C372.034 269.447 371.741 262.947 367.968 258.296L359.521 247.902C356.679 244.404 355.753 239.769 357.049 235.477L362.037 218.914C363.758 213.221 361.535 207.091 356.542 203.726L346.616 197.044C341.717 193.745 339.477 187.775 341.027 182.153C343.38 173.669 337.085 165.242 328.117 164.862L323.725 164.675C314.225 164.272 306.241 157.552 304.404 148.421L304.095 146.882C302.263 137.778 291.841 133.127 283.621 137.751C278.18 140.806 271.345 139.894 266.942 135.583L263.257 131.969C257.85 126.678 249.088 126.678 243.682 131.969L235.626 139.858C233.596 141.85 230.981 143.169 228.145 143.638L211.494 146.391C199.996 148.289 192.68 159.494 195.754 170.512L199.02 182.258C200.57 187.814 198.358 193.723 193.508 196.989L183.401 203.797C178.463 207.119 176.272 213.171 177.966 218.799L183.02 235.56C184.294 239.797 183.384 244.376 180.576 247.836L171.996 258.396C168.267 262.986 167.98 269.402 171.279 274.296L179.544 286.55C182.832 291.427 182.556 297.822 178.854 302.412L177.635 303.929C172.427 310.384 172.984 319.637 178.921 325.452C190.785 337.316 190.605 337.153 190.661 337.181C187.097 343.272 185.056 350.362 185.056 357.926V379.587C185.056 382.025 187.031 384 189.469 384H350.572C353.01 384 354.986 382.025 354.986 379.587V357.926C354.986 344.823 348.511 335.791 349.38 337.181C349.435 337.154 348.819 337.753 361.121 325.452C367.057 319.637 367.615 310.384 362.406 303.929L361.264 302.506C357.518 297.86 357.237 291.388 360.569 286.445L368.69 274.401ZM346.55 332.977H346.555C346.721 333.192 346.886 333.413 347.046 333.634C346.886 333.413 346.721 333.192 346.55 332.977Z" fill="#C79A83"/>
<path d="M324.641 216.955V239.52C324.641 269.697 300.173 294.141 270.021 294.141C241.528 294.141 218.279 272.37 215.649 244.76C215.502 243.223 216.206 241.731 217.449 240.816C231.174 230.708 235.589 221.228 236.917 214.07C238.148 207.427 236.73 202.759 239.676 195.863C244.145 185.408 255.77 177.231 269.772 177.231H284.917C306.856 177.231 324.641 195.016 324.641 216.955Z" fill="#E0B7A3"/>
<path d="M324.641 239.521V216.956C324.641 195.017 306.856 177.232 284.917 177.232H269.772C255.77 177.232 244.145 185.408 239.676 195.864C236.73 202.76 238.148 207.428 236.917 214.07C235.589 221.229 231.173 230.709 217.449 240.817C216.206 241.732 215.502 243.224 215.649 244.76C217.601 265.249 230.871 282.44 249.138 290.009L249.055 290.208V293.976C249.055 306.543 238.87 316.784 226.198 316.784C211.042 316.784 197.8 324.983 190.661 337.181C190.606 337.154 191.222 337.753 178.921 325.452C172.984 319.637 172.427 310.384 177.635 303.929L178.854 302.412C182.556 297.822 182.832 291.427 179.544 286.55L171.279 274.296C167.98 269.402 168.267 262.986 171.996 258.396L180.576 247.836C183.384 244.376 184.294 239.797 183.02 235.56L177.966 218.799C176.272 213.171 178.463 207.119 183.401 203.797L193.508 196.989C198.358 193.723 200.57 187.814 199.02 182.258L195.754 170.512C192.68 159.494 199.996 148.289 211.494 146.391L228.145 143.638C230.981 143.169 233.596 141.85 235.626 139.858L243.682 131.969C249.088 126.678 257.85 126.678 263.257 131.969L266.942 135.583C271.347 139.896 278.182 140.805 283.621 137.751C291.841 133.127 302.263 137.778 304.095 146.882L304.404 148.421C306.241 157.552 314.225 164.272 323.725 164.675L328.117 164.862C337.084 165.242 343.38 173.668 341.027 182.153C339.477 187.775 341.717 193.745 346.616 197.044L356.542 203.726C361.535 207.091 363.758 213.221 362.037 218.914L357.049 235.477C355.753 239.769 356.679 244.404 359.521 247.902L367.968 258.296C371.741 262.947 372.034 269.447 368.69 274.401L360.569 286.445C357.237 291.388 357.518 297.86 361.264 302.506L362.406 303.929C367.615 310.384 367.057 319.637 361.121 325.452C349.257 337.316 349.436 337.153 349.38 337.181C342.169 324.882 328.863 316.742 313.726 316.784C301.121 316.819 290.986 306.364 290.986 293.759V290.208L290.903 290.004C310.71 281.805 324.641 262.29 324.641 239.521Z" fill="#42434D"/>
<path d="M354.986 357.925V379.586C354.986 382.023 353.009 383.999 350.572 383.999H189.469C187.032 383.999 185.056 382.023 185.056 379.586V357.925C185.056 335.205 203.478 316.783 226.198 316.783C227.577 316.783 228.934 316.662 230.247 316.43L230.297 316.69C262.608 345.682 307.681 351.557 346.555 332.976C351.846 339.901 354.986 348.546 354.986 357.925Z" fill="#D6F4FC"/>
<path d="M340.006 326.174C339.411 325.688 338.804 325.214 338.186 324.756C338.809 325.214 339.411 325.689 340.006 326.174Z" fill="#C79A83"/>
<path d="M291.61 299.266C278.017 304.956 263.079 305.397 248.432 299.266C249.18 296.162 249.055 294.152 249.055 290.207L249.138 290.003C262.425 295.518 277.591 295.529 290.903 290.003L290.986 290.207C290.986 294.153 290.861 296.164 291.61 299.266Z" fill="#A07765"/>
<path d="M338.186 324.756C338.809 325.214 339.411 325.689 340.006 326.174C339.411 325.689 338.804 325.214 338.186 324.756Z" fill="#C79A83"/>
<path d="M347.046 333.633C346.886 333.412 346.72 333.191 346.549 332.976H346.555C346.721 333.192 346.886 333.413 347.046 333.633Z" fill="#C79A83"/>
<path d="M263.331 144.736C257.278 150.599 255.384 153.725 249.662 154.671C242.746 155.815 210.386 156.861 217.271 181.545L220.537 193.291C222.087 198.847 219.875 204.756 215.025 208.022L204.918 214.831C199.98 218.152 197.789 224.204 199.483 229.832L204.537 246.593C205.811 250.83 204.901 255.41 202.093 258.869L193.514 269.429C189.784 274.019 189.497 280.436 192.796 285.329L201.061 297.583C204.349 302.46 204.074 308.855 200.371 313.445L199.152 314.962C196.255 318.554 195.143 323.012 195.75 327.261C195.979 328.863 195.499 330.487 194.468 331.734C192.074 334.63 188.066 334.596 185.711 332.241C182.51 329.042 178.935 325.464 178.92 325.449C172.984 319.634 172.426 310.382 177.635 303.927L178.854 302.41C182.556 297.819 182.832 291.425 179.543 286.548L171.279 274.294C167.979 269.4 168.266 262.984 171.996 258.393L180.575 247.833C183.383 244.374 184.294 239.795 183.019 235.558L177.966 218.796C176.272 213.169 178.462 207.116 183.4 203.795L193.508 196.987C198.357 193.721 200.57 187.812 199.019 182.256L195.753 170.51C192.68 159.492 199.996 148.286 211.494 146.389L228.145 143.635C230.98 143.167 233.596 141.848 235.626 139.856L243.681 131.967C249.088 126.676 257.849 126.676 263.256 131.967C267.076 135.713 266.766 141.408 263.331 144.736Z" fill="#4D4E59"/>
<path d="M256.781 275.419C265.873 280.313 259.403 294.105 249.811 290.283C231.236 282.879 217.629 265.535 215.649 244.762C215.5 243.223 216.206 241.733 217.447 240.817C222.22 237.303 225.867 233.866 228.647 230.572C228.382 231.212 228.272 231.913 228.338 232.624C230.193 252.075 241.624 267.261 256.781 275.419Z" fill="#F2D1C2"/>
<path d="M347.046 333.633C346.886 333.412 346.72 333.191 346.549 332.976H346.555C346.721 333.192 346.886 333.413 347.046 333.633Z" fill="#C79A83"/>
<path d="M236.221 321.636C239.155 323.91 238.122 328.541 234.515 329.419C211.65 334.982 201.607 351.029 201.607 368.96V383.999H189.469C187.032 383.999 185.056 382.023 185.056 379.586V357.925C185.056 335.205 203.478 316.783 226.198 316.783C227.577 316.783 228.934 316.662 230.247 316.43L230.297 316.69C231.903 318.133 233.88 319.821 236.221 321.636Z" fill="#E8F8FC"/>
<path d="M354.986 357.925V379.586C354.986 382.024 353.01 383.999 350.572 383.999H338.434V368.96C338.434 358.024 334.699 347.785 326.594 340.204C335.962 337.798 342.92 334.714 346.555 332.976C351.846 339.901 354.986 348.546 354.986 357.925Z" fill="#BDEFFC"/>
<path d="M346.555 332.977C342.92 334.715 335.962 337.799 326.594 340.204C322.852 336.697 318.176 333.76 312.505 331.582C306.307 329.201 306.232 324.827 307.348 321.385C308.248 318.61 310.859 316.774 313.777 316.783C326.453 316.823 338.599 322.542 346.556 332.975C346.555 332.976 346.555 332.976 346.555 332.977Z" fill="#A07765"/>
</g>
</g>
<defs>
<clipPath id="clip0">
<rect width="398" height="383" fill="white"/>
</clipPath>
<clipPath id="clip1">
<rect x="142" y="128" width="256" height="256" fill="white"/>
</clipPath>
</defs>
</svg>
