<svg height="512" viewBox="0 0 64 64" width="512" xmlns="http://www.w3.org/2000/svg"><path d="m19 24a4 4 0 0 0 -4 4v4h8v-4a4 4 0 0 0 -4-4z"/><path d="m22 39a1 1 0 0 1 1-1h14a1 1 0 0 1 1 1v15h8.52c-2.93-3.94-6.52-9.48-6.52-13a10.958 10.958 0 0 1 2.52-7h-8.52v-2h1v-4a6 6 0 1 1 12 0v2.76a11.072 11.072 0 0 1 4-.76v-11.52l-21-5.45-21 5.45v35.52h13zm-10-7h1v-4a6 6 0 0 1 12 0v4h1v2h-14z"/><path d="m45 28a3.978 3.978 0 0 0 -4-4 4 4 0 0 0 -4 4v4h7.7l.3-.21z"/><path d="m4 13.77v3.94l25.75-6.68a1.057 1.057 0 0 1 .5 0l25.75 6.68v-3.94l-26-6.74z"/><path d="m29 54v-14h-5v14zm-3-8h2v2h-2z"/><path d="m51 56.46c3.07-3.69 9-11.59 9-15.46a9 9 0 0 0 -18 0c0 3.87 5.93 11.77 9 15.46zm0-20.46a5 5 0 1 1 -5 5 5.006 5.006 0 0 1 5-5z"/><path d="m51 60c3.84 0 5.88-1.1 6-1.52-.09-.27-1.37-1.06-3.96-1.36-.71.88-1.2 1.44-1.29 1.54a1 1 0 0 1 -1.5 0c-.09-.1-.58-.66-1.29-1.54-2.59.3-3.87 1.09-3.96 1.4.12.38 2.16 1.48 6 1.48z"/><circle cx="51" cy="41" r="3"/><path d="m36 54v-14h-5v14zm-4-8h2v2h-2z"/></svg>