<svg width="512" height="512" viewBox="0 0 512 512" fill="none" xmlns="http://www.w3.org/2000/svg">
<rect width="512" height="512" fill="#1E728D"/>
<path d="M138.719 327.211L162.203 261.539C162.578 260.602 163 259.734 163.469 258.938C163.938 258.094 164.57 257.672 165.367 257.672C166.305 257.672 166.938 257.93 167.266 258.445C167.641 258.961 167.828 259.477 167.828 259.992C167.828 260.508 167.734 261.047 167.547 261.609C167.406 262.172 167.219 262.781 166.984 263.438L142.164 332.273C141.648 333.352 141.18 334.242 140.758 334.945C140.336 335.648 139.656 336 138.719 336C137.781 336 137.078 335.648 136.609 334.945C136.188 334.242 135.789 333.352 135.414 332.273L111.93 267.023L88.5859 332.273C88.2109 333.352 87.7656 334.242 87.25 334.945C86.7344 335.648 86.0312 336 85.1406 336C84.2031 336 83.5 335.648 83.0312 334.945C82.6094 334.242 82.2109 333.352 81.8359 332.273L57.0859 263.438C56.8516 262.781 56.6172 262.172 56.3828 261.609C56.1953 261.047 56.1016 260.508 56.1016 259.992C56.1016 259.477 56.2891 258.961 56.6641 258.445C57.0391 257.93 57.6953 257.672 58.6328 257.672C59.5234 257.672 60.1797 258.094 60.6016 258.938C61.0703 259.734 61.4922 260.602 61.8672 261.539L85.1406 327.211L108.625 261.539C109 260.602 109.398 259.734 109.82 258.938C110.289 258.094 110.945 257.672 111.789 257.672C112.867 257.672 113.617 258.023 114.039 258.727C114.508 259.43 114.953 260.367 115.375 261.539L138.719 327.211ZM225.203 329.672L265.352 261.188C265.867 260.297 266.406 259.523 266.969 258.867C267.531 258.211 268.141 257.836 268.797 257.742C269.688 257.742 270.32 258.023 270.695 258.586C271.07 259.148 271.258 259.688 271.258 260.203C271.258 260.719 271.094 261.281 270.766 261.891C270.484 262.453 270.156 263.039 269.781 263.648L228.789 333.539C228.273 334.383 227.688 335.016 227.031 335.438C226.422 335.812 225.789 336 225.133 336C223.727 336 222.531 335.18 221.547 333.539L180.414 263.648C180.039 262.992 179.711 262.383 179.43 261.82C179.195 261.211 179.078 260.625 179.078 260.062C179.078 259.688 179.266 259.219 179.641 258.656C180.016 258.047 180.602 257.742 181.398 257.742C182.195 257.836 182.852 258.211 183.367 258.867C183.93 259.523 184.469 260.297 184.984 261.188L225.203 329.672ZM325.609 329.672L365.758 261.188C366.273 260.297 366.812 259.523 367.375 258.867C367.938 258.211 368.547 257.836 369.203 257.742C370.094 257.742 370.727 258.023 371.102 258.586C371.477 259.148 371.664 259.688 371.664 260.203C371.664 260.719 371.5 261.281 371.172 261.891C370.891 262.453 370.562 263.039 370.188 263.648L329.195 333.539C328.68 334.383 328.094 335.016 327.438 335.438C326.828 335.812 326.195 336 325.539 336C324.133 336 322.938 335.18 321.953 333.539L280.82 263.648C280.445 262.992 280.117 262.383 279.836 261.82C279.602 261.211 279.484 260.625 279.484 260.062C279.484 259.688 279.672 259.219 280.047 258.656C280.422 258.047 281.008 257.742 281.805 257.742C282.602 257.836 283.258 258.211 283.773 258.867C284.336 259.523 284.875 260.297 285.391 261.188L325.609 329.672ZM416.805 298.383L448.938 259.43C449.828 258.305 450.812 257.742 451.891 257.742C453.438 257.742 454.211 258.586 454.211 260.273C454.211 261.07 453.812 261.938 453.016 262.875L419.828 302.883V331.148C419.828 332.508 419.641 333.656 419.266 334.594C418.938 335.531 418.188 336 417.016 336C416.312 336 415.75 335.883 415.328 335.648C414.953 335.367 414.648 335.016 414.414 334.594C414.18 334.125 414.016 333.609 413.922 333.047C413.875 332.484 413.852 331.898 413.852 331.289V302.742L380.523 262.875C380.055 262.359 379.727 261.914 379.539 261.539C379.398 261.164 379.328 260.672 379.328 260.062C379.328 259.359 379.539 258.797 379.961 258.375C380.43 257.906 380.992 257.672 381.648 257.672C382.68 257.672 383.688 258.258 384.672 259.43L416.805 298.383Z" fill="white"/>
<path d="M125.26 378L129.976 354.384H136.456C137.56 354.384 138.556 354.492 139.444 354.708C140.356 354.9 141.136 355.224 141.784 355.68C142.432 356.112 142.936 356.676 143.296 357.372C143.656 358.068 143.836 358.908 143.836 359.892C143.836 360.972 143.656 361.956 143.296 362.844C142.96 363.732 142.48 364.512 141.856 365.184C141.232 365.832 140.5 366.372 139.66 366.804C138.82 367.236 137.896 367.548 136.888 367.74L141.028 378H138.04L134.152 367.992H130.048L128.068 378H125.26ZM130.516 365.724H134.08C136.336 365.724 138.064 365.232 139.264 364.248C140.464 363.264 141.064 361.932 141.064 360.252C141.064 358.956 140.608 358.032 139.696 357.48C138.808 356.904 137.5 356.616 135.772 356.616H132.316L130.516 365.724ZM145.229 378L149.945 354.384H162.977L162.509 356.724H152.249L150.737 364.392H159.413L158.909 366.768H150.305L148.469 375.624H159.053L158.549 378H145.229ZM163.334 378L168.05 354.384H174.71C175.814 354.384 176.822 354.492 177.734 354.708C178.646 354.924 179.426 355.272 180.074 355.752C180.722 356.208 181.226 356.796 181.586 357.516C181.946 358.236 182.126 359.112 182.126 360.144C182.126 361.584 181.862 362.832 181.334 363.888C180.83 364.944 180.122 365.82 179.21 366.516C178.298 367.188 177.206 367.692 175.934 368.028C174.686 368.34 173.306 368.496 171.794 368.496H168.014L166.142 378H163.334ZM168.482 366.228H171.902C174.35 366.228 176.198 365.748 177.446 364.788C178.718 363.828 179.354 362.4 179.354 360.504C179.354 359.136 178.898 358.152 177.986 357.552C177.074 356.928 175.754 356.616 174.026 356.616H170.39L168.482 366.228ZM183.127 378L187.843 354.384H194.323C195.427 354.384 196.423 354.492 197.311 354.708C198.223 354.9 199.003 355.224 199.651 355.68C200.299 356.112 200.803 356.676 201.163 357.372C201.523 358.068 201.703 358.908 201.703 359.892C201.703 360.972 201.523 361.956 201.163 362.844C200.827 363.732 200.347 364.512 199.723 365.184C199.099 365.832 198.367 366.372 197.527 366.804C196.687 367.236 195.763 367.548 194.755 367.74L198.895 378H195.907L192.019 367.992H187.915L185.935 378H183.127ZM188.383 365.724H191.947C194.203 365.724 195.931 365.232 197.131 364.248C198.331 363.264 198.931 361.932 198.931 360.252C198.931 358.956 198.475 358.032 197.563 357.48C196.675 356.904 195.367 356.616 193.639 356.616H190.183L188.383 365.724ZM203.096 378L207.812 354.384H220.844L220.376 356.724H210.116L208.604 364.392H217.28L216.776 366.768H208.172L206.336 375.624H216.92L216.416 378H203.096ZM228.257 378.432C226.625 378.432 225.137 378.096 223.793 377.424C222.473 376.728 221.333 375.672 220.373 374.256L222.425 372.708C223.121 373.764 223.973 374.592 224.981 375.192C226.013 375.768 227.189 376.056 228.509 376.056C229.229 376.056 229.901 375.948 230.525 375.732C231.149 375.516 231.677 375.216 232.109 374.832C232.565 374.448 232.925 373.98 233.189 373.428C233.453 372.876 233.585 372.264 233.585 371.592C233.585 370.728 233.309 370.008 232.757 369.432C232.229 368.832 231.521 368.256 230.633 367.704L227.897 366.048C226.889 365.424 226.025 364.68 225.305 363.816C224.609 362.952 224.261 361.848 224.261 360.504C224.261 359.616 224.441 358.776 224.801 357.984C225.185 357.192 225.701 356.496 226.349 355.896C226.997 355.296 227.765 354.828 228.653 354.492C229.565 354.132 230.549 353.952 231.605 353.952C233.021 353.952 234.305 354.264 235.457 354.888C236.609 355.512 237.557 356.304 238.301 357.264L236.465 358.92C235.841 358.2 235.109 357.6 234.269 357.12C233.453 356.616 232.493 356.364 231.389 356.364C230.717 356.364 230.117 356.472 229.589 356.688C229.061 356.904 228.605 357.192 228.221 357.552C227.861 357.912 227.585 358.32 227.393 358.776C227.201 359.232 227.105 359.7 227.105 360.18C227.105 361.092 227.393 361.836 227.969 362.412C228.569 362.964 229.301 363.504 230.165 364.032L232.901 365.652C234.053 366.324 234.929 367.092 235.529 367.956C236.153 368.796 236.465 369.876 236.465 371.196C236.465 372.252 236.261 373.224 235.853 374.112C235.445 375 234.881 375.768 234.161 376.416C233.441 377.04 232.577 377.532 231.569 377.892C230.561 378.252 229.457 378.432 228.257 378.432ZM239.412 378L244.128 354.384H257.16L256.692 356.724H246.432L244.92 364.392H253.596L253.092 366.768H244.488L242.652 375.624H253.236L252.732 378H239.412ZM257.518 378L262.234 354.384H265.042L270.442 369.504L271.954 374.436H272.098C272.242 373.26 272.386 372.024 272.53 370.728C272.698 369.408 272.914 368.136 273.178 366.912L275.662 354.384H278.362L273.646 378H270.874L265.546 362.916L263.998 357.84H263.854C263.71 359.064 263.542 360.312 263.35 361.584C263.182 362.856 262.978 364.092 262.738 365.292L260.218 378H257.518ZM284.523 378L288.735 356.796H281.895L282.363 354.384H298.887L298.419 356.796H291.543L287.331 378H284.523ZM302.012 364.428L299.924 368.46H306.944L306.584 364.428C306.464 363.18 306.344 361.932 306.224 360.684C306.128 359.412 306.032 358.092 305.936 356.724H305.792C305.168 358.092 304.544 359.4 303.92 360.648C303.32 361.872 302.684 363.132 302.012 364.428ZM291.932 378L304.748 354.384H307.988L310.724 378H307.808L307.16 370.62H298.808L295.028 378H291.932ZM321.858 378.432C320.514 378.432 319.314 378.204 318.258 377.748C317.226 377.268 316.35 376.608 315.63 375.768C314.934 374.928 314.394 373.932 314.01 372.78C313.65 371.604 313.47 370.308 313.47 368.892C313.47 367.044 313.758 365.232 314.334 363.456C314.934 361.656 315.762 360.06 316.818 358.668C317.898 357.252 319.182 356.112 320.67 355.248C322.182 354.384 323.85 353.952 325.674 353.952C327.042 353.952 328.206 354.288 329.166 354.96C330.126 355.608 330.894 356.436 331.47 357.444L329.526 358.92C329.046 358.152 328.482 357.54 327.834 357.084C327.21 356.604 326.442 356.364 325.53 356.364C324.114 356.364 322.842 356.736 321.714 357.48C320.586 358.224 319.626 359.184 318.834 360.36C318.042 361.536 317.43 362.856 316.998 364.32C316.566 365.76 316.35 367.2 316.35 368.64C316.35 369.72 316.458 370.716 316.674 371.628C316.914 372.516 317.274 373.284 317.754 373.932C318.234 374.58 318.858 375.096 319.626 375.48C320.394 375.84 321.306 376.02 322.362 376.02C323.322 376.02 324.198 375.828 324.99 375.444C325.806 375.06 326.598 374.544 327.366 373.896L328.626 375.696C327.762 376.464 326.778 377.112 325.674 377.64C324.57 378.168 323.298 378.432 321.858 378.432ZM316.782 386.136L316.71 384.732C318.15 384.684 319.206 384.492 319.878 384.156C320.574 383.82 320.946 383.364 320.994 382.788C320.994 382.332 320.802 381.984 320.418 381.744C320.058 381.504 319.422 381.336 318.51 381.24L320.67 377.892H322.614L321.138 380.34C321.978 380.556 322.554 380.832 322.866 381.168C323.178 381.528 323.31 382.008 323.262 382.608C323.166 383.76 322.542 384.624 321.39 385.2C320.238 385.776 318.702 386.088 316.782 386.136ZM339.785 378.432C338.465 378.432 337.289 378.204 336.257 377.748C335.249 377.268 334.397 376.596 333.701 375.732C333.029 374.868 332.513 373.824 332.153 372.6C331.793 371.376 331.613 370.02 331.613 368.532C331.613 366.732 331.889 364.968 332.441 363.24C333.017 361.488 333.809 359.928 334.817 358.56C335.825 357.168 337.025 356.052 338.417 355.212C339.833 354.372 341.393 353.952 343.097 353.952C344.417 353.952 345.581 354.192 346.589 354.672C347.621 355.128 348.473 355.788 349.145 356.652C349.841 357.516 350.369 358.56 350.729 359.784C351.089 360.984 351.269 362.328 351.269 363.816C351.269 365.616 350.981 367.392 350.405 369.144C349.853 370.896 349.073 372.468 348.065 373.86C347.057 375.228 345.845 376.332 344.429 377.172C343.013 378.012 341.465 378.432 339.785 378.432ZM339.929 376.02C341.201 376.02 342.353 375.66 343.385 374.94C344.441 374.196 345.341 373.248 346.085 372.096C346.829 370.944 347.405 369.66 347.813 368.244C348.221 366.828 348.425 365.436 348.425 364.068C348.425 361.74 347.981 359.88 347.093 358.488C346.205 357.072 344.825 356.364 342.953 356.364C341.681 356.364 340.517 356.724 339.461 357.444C338.429 358.164 337.541 359.1 336.797 360.252C336.053 361.404 335.477 362.688 335.069 364.104C334.661 365.52 334.457 366.924 334.457 368.316C334.457 369.468 334.565 370.524 334.781 371.484C334.997 372.42 335.321 373.224 335.753 373.896C336.209 374.568 336.785 375.096 337.481 375.48C338.177 375.84 338.993 376.02 339.929 376.02ZM346.697 352.476C346.073 352.476 345.557 352.344 345.149 352.08C344.741 351.816 344.369 351.528 344.033 351.216C343.697 350.88 343.373 350.58 343.061 350.316C342.749 350.028 342.389 349.884 341.981 349.884C341.021 349.884 340.301 350.688 339.821 352.296L337.877 352.152C338.165 350.736 338.705 349.644 339.497 348.876C340.289 348.108 341.225 347.724 342.305 347.724C342.929 347.724 343.445 347.868 343.853 348.156C344.285 348.42 344.657 348.72 344.969 349.056C345.305 349.368 345.629 349.656 345.941 349.92C346.253 350.184 346.613 350.316 347.021 350.316C347.981 350.316 348.713 349.512 349.217 347.904L351.125 348.048C350.837 349.488 350.297 350.592 349.505 351.36C348.713 352.104 347.777 352.476 346.697 352.476ZM353.494 378L358.21 354.384H371.242L370.774 356.724H360.514L359.002 364.392H367.678L367.174 366.768H358.57L356.734 375.624H367.318L366.814 378H353.494ZM378.656 378.432C377.024 378.432 375.536 378.096 374.192 377.424C372.872 376.728 371.732 375.672 370.772 374.256L372.824 372.708C373.52 373.764 374.372 374.592 375.38 375.192C376.412 375.768 377.588 376.056 378.908 376.056C379.628 376.056 380.3 375.948 380.924 375.732C381.548 375.516 382.076 375.216 382.508 374.832C382.964 374.448 383.324 373.98 383.588 373.428C383.852 372.876 383.984 372.264 383.984 371.592C383.984 370.728 383.708 370.008 383.156 369.432C382.628 368.832 381.92 368.256 381.032 367.704L378.296 366.048C377.288 365.424 376.424 364.68 375.704 363.816C375.008 362.952 374.66 361.848 374.66 360.504C374.66 359.616 374.84 358.776 375.2 357.984C375.584 357.192 376.1 356.496 376.748 355.896C377.396 355.296 378.164 354.828 379.052 354.492C379.964 354.132 380.948 353.952 382.004 353.952C383.42 353.952 384.704 354.264 385.856 354.888C387.008 355.512 387.956 356.304 388.7 357.264L386.864 358.92C386.24 358.2 385.508 357.6 384.668 357.12C383.852 356.616 382.892 356.364 381.788 356.364C381.116 356.364 380.516 356.472 379.988 356.688C379.46 356.904 379.004 357.192 378.62 357.552C378.26 357.912 377.984 358.32 377.792 358.776C377.6 359.232 377.504 359.7 377.504 360.18C377.504 361.092 377.792 361.836 378.368 362.412C378.968 362.964 379.7 363.504 380.564 364.032L383.3 365.652C384.452 366.324 385.328 367.092 385.928 367.956C386.552 368.796 386.864 369.876 386.864 371.196C386.864 372.252 386.66 373.224 386.252 374.112C385.844 375 385.28 375.768 384.56 376.416C383.84 377.04 382.976 377.532 381.968 377.892C380.96 378.252 379.856 378.432 378.656 378.432Z" fill="white"/>
<g clip-path="url(#clip0)">
<path d="M327.728 237.687V230.128H308.502V237.687C308.555 251.058 327.728 251.216 327.728 237.687Z" fill="white"/>
<path d="M239.419 237.59V230.005H220.232V237.59C220.206 251.167 239.419 251.009 239.419 237.59Z" fill="white"/>
<path d="M338 214.202V187.602C337.974 178.331 330.586 173.432 326.385 172.892L315.89 145.804C313.928 140.616 309.635 136.204 301.523 136.165H286.734H261.45H246.385C238.313 136.204 234.02 140.616 232.018 145.804L221.523 172.892C217.361 173.432 209.987 178.331 210 187.602V214.202C210 218.561 213.542 222.104 217.901 222.104H330.099C334.458 222.104 338 218.575 338 214.202ZM231.465 202.601C231.452 202.601 231.452 202.601 231.439 202.601C231.426 202.601 231.426 202.601 231.412 202.601C226.514 202.601 222.563 198.519 222.576 193.488C222.55 188.444 226.487 184.362 231.36 184.362C231.386 184.362 231.412 184.362 231.439 184.362C231.465 184.362 231.491 184.362 231.518 184.362C236.377 184.362 240.314 188.444 240.301 193.488C240.314 198.519 236.351 202.601 231.465 202.601ZM274 172.642H273.908H241.065C238.168 172.642 236.206 169.692 237.338 167.019L242.869 153.942C243.699 151.875 245.305 148.741 248.808 148.688H299.073C302.523 148.741 303.393 150.677 305.012 153.942L310.543 167.019C311.676 169.692 309.714 172.642 306.816 172.642H274ZM315.916 203.259C315.903 203.259 315.903 203.259 315.89 203.259C315.877 203.259 315.877 203.259 315.864 203.259C310.938 203.259 306.975 199.177 306.948 194.147C306.975 189.103 310.912 185.021 315.824 185.021C315.85 185.021 315.877 185.021 315.903 185.021C315.929 185.021 315.956 185.021 315.982 185.021C320.802 185.021 324.739 189.103 324.766 194.147C324.726 199.177 320.762 203.259 315.916 203.259Z" fill="white"/>
<path d="M239.498 222.025H220.272V230.058H239.498V222.025Z" fill="white"/>
<path d="M327.728 222.025H308.502V230.189H327.728V222.025Z" fill="white"/>
</g>
<defs>
<clipPath id="clip0">
<rect x="210" y="128" width="128" height="128" fill="white"/>
</clipPath>
</defs>
</svg>
